<?xml version="1.0" encoding="UTF-8" standalone="no"?>
<!DOCTYPE svg PUBLIC "-//W3C//DTD SVG 1.1//EN"
 "http://www.w3.org/Graphics/SVG/1.1/DTD/svg11.dtd">
<!-- Generated by graphviz version 2.43.0 (0)
 -->
<!-- Title: %3 Pages: 1 -->
<svg width="3350pt" height="678pt"
 viewBox="0.00 0.00 2412.13 488.00" xmlns="http://www.w3.org/2000/svg" xmlns:xlink="http://www.w3.org/1999/xlink">
<g id="graph0" class="graph" transform="scale(0.72 0.72) rotate(0) translate(4 484)">
<title>%3</title>
<polygon fill="white" stroke="transparent" points="-4,4 -4,-484 2408.13,-484 2408.13,4 -4,4"/>
<!-- node7064 -->
<g id="node1" class="node">
<title>node7064</title>
<path fill="#cae1ff" stroke="black" d="M1342.12,-480C1342.12,-480 1124.79,-480 1124.79,-480 1118.79,-480 1112.79,-474 1112.79,-468 1112.79,-468 1112.79,-444 1112.79,-444 1112.79,-438 1118.79,-432 1124.79,-432 1124.79,-432 1342.12,-432 1342.12,-432 1348.12,-432 1354.12,-438 1354.12,-444 1354.12,-444 1354.12,-468 1354.12,-468 1354.12,-474 1348.12,-480 1342.12,-480"/>
<text text-anchor="middle" x="1233.46" y="-468" font-family="Monospace" font-size="10.00">:$id https://example.com/person.schema.json</text>
<text text-anchor="middle" x="1233.46" y="-458" font-family="Monospace" font-size="10.00">:$schema http://json&#45;schema.org/draft&#45;07/schema#</text>
<text text-anchor="middle" x="1233.46" y="-448" font-family="Monospace" font-size="10.00">:title Person</text>
<text text-anchor="middle" x="1233.46" y="-438" font-family="Monospace" font-size="10.00">:type object</text>
</g>
<!-- node7065 -->
<g id="node2" class="node">
<title>node7065</title>
<path fill="snow" stroke="black" d="M1253.2,-396C1253.2,-396 1213.71,-396 1213.71,-396 1207.71,-396 1201.71,-390 1201.71,-384 1201.71,-384 1201.71,-372 1201.71,-372 1201.71,-366 1207.71,-360 1213.71,-360 1213.71,-360 1253.2,-360 1253.2,-360 1259.2,-360 1265.2,-366 1265.2,-372 1265.2,-372 1265.2,-384 1265.2,-384 1265.2,-390 1259.2,-396 1253.2,-396"/>
<text text-anchor="middle" x="1233.46" y="-375" font-family="Monospace" font-size="10.00">:properties</text>
</g>
<!-- node7064&#45;&gt;node7065 -->
<g id="edge1" class="edge">
<title>node7064&#45;&gt;node7065</title>
<path fill="none" stroke="black" d="M1233.46,-431.78C1233.46,-423.68 1233.46,-414.52 1233.46,-406.12"/>
<polygon fill="black" stroke="black" points="1236.96,-406.04 1233.46,-396.04 1229.96,-406.04 1236.96,-406.04"/>
</g>
<!-- node7066 -->
<g id="node3" class="node">
<title>node7066</title>
<path fill="snow" stroke="black" d="M217.02,-324C217.02,-324 179.89,-324 179.89,-324 173.89,-324 167.89,-318 167.89,-312 167.89,-312 167.89,-300 167.89,-300 167.89,-294 173.89,-288 179.89,-288 179.89,-288 217.02,-288 217.02,-288 223.02,-288 229.02,-294 229.02,-300 229.02,-300 229.02,-312 229.02,-312 229.02,-318 223.02,-324 217.02,-324"/>
<text text-anchor="middle" x="198.46" y="-303" font-family="Monospace" font-size="10.00">:firstName</text>
</g>
<!-- node7065&#45;&gt;node7066 -->
<g id="edge2" class="edge">
<title>node7065&#45;&gt;node7066</title>
<path fill="none" stroke="black" d="M1201.63,-374.85C1050.85,-364.65 408.61,-321.21 239.44,-309.77"/>
<polygon fill="black" stroke="black" points="239.43,-306.26 229.21,-309.08 238.95,-313.25 239.43,-306.26"/>
</g>
<!-- node7070 -->
<g id="node7" class="node">
<title>node7070</title>
<path fill="snow" stroke="black" d="M567.97,-324C567.97,-324 530.94,-324 530.94,-324 524.94,-324 518.94,-318 518.94,-312 518.94,-312 518.94,-300 518.94,-300 518.94,-294 524.94,-288 530.94,-288 530.94,-288 567.97,-288 567.97,-288 573.97,-288 579.97,-294 579.97,-300 579.97,-300 579.97,-312 579.97,-312 579.97,-318 573.97,-324 567.97,-324"/>
<text text-anchor="middle" x="549.46" y="-303" font-family="Monospace" font-size="10.00">:lastName</text>
</g>
<!-- node7065&#45;&gt;node7070 -->
<g id="edge3" class="edge">
<title>node7065&#45;&gt;node7070</title>
<path fill="none" stroke="black" d="M1201.38,-373.72C1089.36,-362.25 715.56,-324 590.56,-311.21"/>
<polygon fill="black" stroke="black" points="590.59,-307.69 580.28,-310.15 589.87,-314.65 590.59,-307.69"/>
</g>
<!-- node7073 -->
<g id="node10" class="node">
<title>node7073</title>
<path fill="snow" stroke="black" d="M1134.46,-324C1134.46,-324 1104.46,-324 1104.46,-324 1098.46,-324 1092.46,-318 1092.46,-312 1092.46,-312 1092.46,-300 1092.46,-300 1092.46,-294 1098.46,-288 1104.46,-288 1104.46,-288 1134.46,-288 1134.46,-288 1140.46,-288 1146.46,-294 1146.46,-300 1146.46,-300 1146.46,-312 1146.46,-312 1146.46,-318 1140.46,-324 1134.46,-324"/>
<text text-anchor="middle" x="1119.46" y="-303" font-family="Monospace" font-size="10.00">:age</text>
</g>
<!-- node7065&#45;&gt;node7073 -->
<g id="edge4" class="edge">
<title>node7065&#45;&gt;node7073</title>
<path fill="none" stroke="black" d="M1205.57,-359.88C1190.44,-350.59 1171.57,-339 1155.36,-329.04"/>
<polygon fill="black" stroke="black" points="1157.01,-325.96 1146.66,-323.71 1153.35,-331.92 1157.01,-325.96"/>
</g>
<!-- node7078 -->
<g id="node15" class="node">
<title>node7078</title>
<path fill="snow" stroke="black" d="M1430.46,-324C1430.46,-324 1400.46,-324 1400.46,-324 1394.46,-324 1388.46,-318 1388.46,-312 1388.46,-312 1388.46,-300 1388.46,-300 1388.46,-294 1394.46,-288 1400.46,-288 1400.46,-288 1430.46,-288 1430.46,-288 1436.46,-288 1442.46,-294 1442.46,-300 1442.46,-300 1442.46,-312 1442.46,-312 1442.46,-318 1436.46,-324 1430.46,-324"/>
<text text-anchor="middle" x="1415.46" y="-303" font-family="Monospace" font-size="10.00">:salary</text>
</g>
<!-- node7065&#45;&gt;node7078 -->
<g id="edge5" class="edge">
<title>node7065&#45;&gt;node7078</title>
<path fill="none" stroke="black" d="M1265.16,-364.81C1296.86,-352.61 1345.57,-333.88 1378.88,-321.07"/>
<polygon fill="black" stroke="black" points="1380.19,-324.31 1388.27,-317.46 1377.68,-317.78 1380.19,-324.31"/>
</g>
<!-- node7082 -->
<g id="node19" class="node">
<title>node7082</title>
<path fill="snow" stroke="black" d="M1806.46,-324C1806.46,-324 1776.46,-324 1776.46,-324 1770.46,-324 1764.46,-318 1764.46,-312 1764.46,-312 1764.46,-300 1764.46,-300 1764.46,-294 1770.46,-288 1776.46,-288 1776.46,-288 1806.46,-288 1806.46,-288 1812.46,-288 1818.46,-294 1818.46,-300 1818.46,-300 1818.46,-312 1818.46,-312 1818.46,-318 1812.46,-324 1806.46,-324"/>
<text text-anchor="middle" x="1791.46" y="-303" font-family="Monospace" font-size="10.00">:role2</text>
</g>
<!-- node7065&#45;&gt;node7082 -->
<g id="edge6" class="edge">
<title>node7065&#45;&gt;node7082</title>
<path fill="none" stroke="black" d="M1265.46,-372.99C1362.18,-360.85 1651.11,-324.61 1754.31,-311.66"/>
<polygon fill="black" stroke="black" points="1754.78,-315.13 1764.27,-310.41 1753.91,-308.18 1754.78,-315.13"/>
</g>
<!-- node7094 -->
<g id="node31" class="node">
<title>node7094</title>
<path fill="snow" stroke="black" d="M2111.46,-324C2111.46,-324 2081.46,-324 2081.46,-324 2075.46,-324 2069.46,-318 2069.46,-312 2069.46,-312 2069.46,-300 2069.46,-300 2069.46,-294 2075.46,-288 2081.46,-288 2081.46,-288 2111.46,-288 2111.46,-288 2117.46,-288 2123.46,-294 2123.46,-300 2123.46,-300 2123.46,-312 2123.46,-312 2123.46,-318 2117.46,-324 2111.46,-324"/>
<text text-anchor="middle" x="2096.46" y="-303" font-family="Monospace" font-size="10.00">:gender</text>
</g>
<!-- node7065&#45;&gt;node7094 -->
<g id="edge7" class="edge">
<title>node7065&#45;&gt;node7094</title>
<path fill="none" stroke="black" d="M1265.19,-374.43C1398.84,-363.58 1915.56,-321.67 2059.21,-310.02"/>
<polygon fill="black" stroke="black" points="2059.6,-313.5 2069.29,-309.2 2059.04,-306.52 2059.6,-313.5"/>
</g>
<!-- node7067 -->
<g id="node4" class="node">
<title>node7067</title>
<path fill="#cae1ff" stroke="black" d="M52.87,-252C52.87,-252 12.04,-252 12.04,-252 6.04,-252 0.04,-246 0.04,-240 0.04,-240 0.04,-228 0.04,-228 0.04,-222 6.04,-216 12.04,-216 12.04,-216 52.87,-216 52.87,-216 58.87,-216 64.87,-222 64.87,-228 64.87,-228 64.87,-240 64.87,-240 64.87,-246 58.87,-252 52.87,-252"/>
<text text-anchor="middle" x="32.46" y="-231" font-family="Monospace" font-size="10.00">:type string</text>
</g>
<!-- node7066&#45;&gt;node7067 -->
<g id="edge8" class="edge">
<title>node7066&#45;&gt;node7067</title>
<path fill="none" stroke="black" d="M167.62,-292C141.42,-280.95 103.56,-264.99 74.57,-252.76"/>
<polygon fill="black" stroke="black" points="75.69,-249.43 65.11,-248.77 72.97,-255.88 75.69,-249.43"/>
</g>
<!-- node7068 -->
<g id="node5" class="node">
<title>node7068</title>
<path fill="#cae1ff" stroke="black" d="M153.61,-252C153.61,-252 95.3,-252 95.3,-252 89.3,-252 83.3,-246 83.3,-240 83.3,-240 83.3,-228 83.3,-228 83.3,-222 89.3,-216 95.3,-216 95.3,-216 153.61,-216 153.61,-216 159.61,-216 165.61,-222 165.61,-228 165.61,-228 165.61,-240 165.61,-240 165.61,-246 159.61,-252 153.61,-252"/>
<text text-anchor="middle" x="124.46" y="-231" font-family="Monospace" font-size="10.00">:maxLength 10</text>
</g>
<!-- node7066&#45;&gt;node7068 -->
<g id="edge9" class="edge">
<title>node7066&#45;&gt;node7068</title>
<path fill="none" stroke="black" d="M180.16,-287.7C171.02,-279.05 159.82,-268.45 149.86,-259.03"/>
<polygon fill="black" stroke="black" points="152.21,-256.43 142.54,-252.1 147.4,-261.52 152.21,-256.43"/>
</g>
<!-- node7069 -->
<g id="node6" class="node">
<title>node7069</title>
<path fill="#cae1ff" stroke="black" d="M347.65,-252C347.65,-252 195.26,-252 195.26,-252 189.26,-252 183.26,-246 183.26,-240 183.26,-240 183.26,-228 183.26,-228 183.26,-222 189.26,-216 195.26,-216 195.26,-216 347.65,-216 347.65,-216 353.65,-216 359.65,-222 359.65,-228 359.65,-228 359.65,-240 359.65,-240 359.65,-246 353.65,-252 347.65,-252"/>
<text text-anchor="middle" x="271.46" y="-231" font-family="Monospace" font-size="10.00">:description The person&#39;s first name.</text>
</g>
<!-- node7066&#45;&gt;node7069 -->
<g id="edge10" class="edge">
<title>node7066&#45;&gt;node7069</title>
<path fill="none" stroke="black" d="M216.5,-287.7C225.52,-279.05 236.57,-268.45 246.4,-259.03"/>
<polygon fill="black" stroke="black" points="248.82,-261.55 253.62,-252.1 243.98,-256.5 248.82,-261.55"/>
</g>
<!-- node7071 -->
<g id="node8" class="node">
<title>node7071</title>
<path fill="#cae1ff" stroke="black" d="M430.87,-252C430.87,-252 390.04,-252 390.04,-252 384.04,-252 378.04,-246 378.04,-240 378.04,-240 378.04,-228 378.04,-228 378.04,-222 384.04,-216 390.04,-216 390.04,-216 430.87,-216 430.87,-216 436.87,-216 442.87,-222 442.87,-228 442.87,-228 442.87,-240 442.87,-240 442.87,-246 436.87,-252 430.87,-252"/>
<text text-anchor="middle" x="410.46" y="-231" font-family="Monospace" font-size="10.00">:type string</text>
</g>
<!-- node7070&#45;&gt;node7071 -->
<g id="edge11" class="edge">
<title>node7070&#45;&gt;node7071</title>
<path fill="none" stroke="black" d="M518.61,-289.46C499.1,-279.64 473.63,-266.82 452.31,-256.08"/>
<polygon fill="black" stroke="black" points="453.66,-252.84 443.15,-251.47 450.51,-259.09 453.66,-252.84"/>
</g>
<!-- node7072 -->
<g id="node9" class="node">
<title>node7072</title>
<path fill="#cae1ff" stroke="black" d="M625.6,-252C625.6,-252 473.31,-252 473.31,-252 467.31,-252 461.31,-246 461.31,-240 461.31,-240 461.31,-228 461.31,-228 461.31,-222 467.31,-216 473.31,-216 473.31,-216 625.6,-216 625.6,-216 631.6,-216 637.6,-222 637.6,-228 637.6,-228 637.6,-240 637.6,-240 637.6,-246 631.6,-252 625.6,-252"/>
<text text-anchor="middle" x="549.46" y="-231" font-family="Monospace" font-size="10.00">:description The person&#39;s last name.</text>
</g>
<!-- node7070&#45;&gt;node7072 -->
<g id="edge12" class="edge">
<title>node7070&#45;&gt;node7072</title>
<path fill="none" stroke="black" d="M549.46,-287.7C549.46,-279.98 549.46,-270.71 549.46,-262.11"/>
<polygon fill="black" stroke="black" points="552.96,-262.1 549.46,-252.1 545.96,-262.1 552.96,-262.1"/>
</g>
<!-- node7074 -->
<g id="node11" class="node">
<title>node7074</title>
<path fill="#cae1ff" stroke="black" d="M967.35,-252C967.35,-252 667.56,-252 667.56,-252 661.56,-252 655.56,-246 655.56,-240 655.56,-240 655.56,-228 655.56,-228 655.56,-222 661.56,-216 667.56,-216 667.56,-216 967.35,-216 967.35,-216 973.35,-216 979.35,-222 979.35,-228 979.35,-228 979.35,-240 979.35,-240 979.35,-246 973.35,-252 967.35,-252"/>
<text text-anchor="middle" x="817.46" y="-231" font-family="Monospace" font-size="10.00">:description Age in years which must be equal to or greater than zero.</text>
</g>
<!-- node7073&#45;&gt;node7074 -->
<g id="edge13" class="edge">
<title>node7073&#45;&gt;node7074</title>
<path fill="none" stroke="black" d="M1092.39,-298.73C1049.72,-288.84 965.07,-269.22 900.91,-254.34"/>
<polygon fill="black" stroke="black" points="901.33,-250.85 890.8,-252 899.75,-257.67 901.33,-250.85"/>
</g>
<!-- node7075 -->
<g id="node12" class="node">
<title>node7075</title>
<path fill="#cae1ff" stroke="black" d="M1055.99,-252C1055.99,-252 1008.92,-252 1008.92,-252 1002.92,-252 996.92,-246 996.92,-240 996.92,-240 996.92,-228 996.92,-228 996.92,-222 1002.92,-216 1008.92,-216 1008.92,-216 1055.99,-216 1055.99,-216 1061.99,-216 1067.99,-222 1067.99,-228 1067.99,-228 1067.99,-240 1067.99,-240 1067.99,-246 1061.99,-252 1055.99,-252"/>
<text text-anchor="middle" x="1032.46" y="-231" font-family="Monospace" font-size="10.00">:type integer</text>
</g>
<!-- node7073&#45;&gt;node7075 -->
<g id="edge14" class="edge">
<title>node7073&#45;&gt;node7075</title>
<path fill="none" stroke="black" d="M1097.95,-287.7C1086.99,-278.88 1073.51,-268.03 1061.63,-258.47"/>
<polygon fill="black" stroke="black" points="1063.7,-255.65 1053.71,-252.1 1059.31,-261.1 1063.7,-255.65"/>
</g>
<!-- node7076 -->
<g id="node13" class="node">
<title>node7076</title>
<path fill="#cae1ff" stroke="black" d="M1141.13,-252C1141.13,-252 1097.78,-252 1097.78,-252 1091.78,-252 1085.78,-246 1085.78,-240 1085.78,-240 1085.78,-228 1085.78,-228 1085.78,-222 1091.78,-216 1097.78,-216 1097.78,-216 1141.13,-216 1141.13,-216 1147.13,-216 1153.13,-222 1153.13,-228 1153.13,-228 1153.13,-240 1153.13,-240 1153.13,-246 1147.13,-252 1141.13,-252"/>
<text text-anchor="middle" x="1119.46" y="-231" font-family="Monospace" font-size="10.00">:minimum 0</text>
</g>
<!-- node7073&#45;&gt;node7076 -->
<g id="edge15" class="edge">
<title>node7073&#45;&gt;node7076</title>
<path fill="none" stroke="black" d="M1119.46,-287.7C1119.46,-279.98 1119.46,-270.71 1119.46,-262.11"/>
<polygon fill="black" stroke="black" points="1122.96,-262.1 1119.46,-252.1 1115.96,-262.1 1122.96,-262.1"/>
</g>
<!-- node7077 -->
<g id="node14" class="node">
<title>node7077</title>
<path fill="#cae1ff" stroke="black" d="M1241.03,-252C1241.03,-252 1183.88,-252 1183.88,-252 1177.88,-252 1171.88,-246 1171.88,-240 1171.88,-240 1171.88,-228 1171.88,-228 1171.88,-222 1177.88,-216 1183.88,-216 1183.88,-216 1241.03,-216 1241.03,-216 1247.03,-216 1253.03,-222 1253.03,-228 1253.03,-228 1253.03,-240 1253.03,-240 1253.03,-246 1247.03,-252 1241.03,-252"/>
<text text-anchor="middle" x="1212.46" y="-231" font-family="Monospace" font-size="10.00">:maximum 200</text>
</g>
<!-- node7073&#45;&gt;node7077 -->
<g id="edge16" class="edge">
<title>node7073&#45;&gt;node7077</title>
<path fill="none" stroke="black" d="M1142.44,-287.7C1154.27,-278.8 1168.85,-267.82 1181.63,-258.2"/>
<polygon fill="black" stroke="black" points="1183.85,-260.91 1189.73,-252.1 1179.64,-255.32 1183.85,-260.91"/>
</g>
<!-- node7079 -->
<g id="node16" class="node">
<title>node7079</title>
<path fill="#cae1ff" stroke="black" d="M1413.31,-252C1413.31,-252 1283.6,-252 1283.6,-252 1277.6,-252 1271.6,-246 1271.6,-240 1271.6,-240 1271.6,-228 1271.6,-228 1271.6,-222 1277.6,-216 1283.6,-216 1283.6,-216 1413.31,-216 1413.31,-216 1419.31,-216 1425.31,-222 1425.31,-228 1425.31,-228 1425.31,-240 1425.31,-240 1425.31,-246 1419.31,-252 1413.31,-252"/>
<text text-anchor="middle" x="1348.46" y="-231" font-family="Monospace" font-size="10.00">:description Salary of a person.</text>
</g>
<!-- node7078&#45;&gt;node7079 -->
<g id="edge17" class="edge">
<title>node7078&#45;&gt;node7079</title>
<path fill="none" stroke="black" d="M1398.89,-287.7C1390.78,-279.22 1380.87,-268.86 1371.98,-259.58"/>
<polygon fill="black" stroke="black" points="1374.27,-256.91 1364.83,-252.1 1369.21,-261.75 1374.27,-256.91"/>
</g>
<!-- node7080 -->
<g id="node17" class="node">
<title>node7080</title>
<path fill="#cae1ff" stroke="black" d="M1511.38,-252C1511.38,-252 1455.53,-252 1455.53,-252 1449.53,-252 1443.53,-246 1443.53,-240 1443.53,-240 1443.53,-228 1443.53,-228 1443.53,-222 1449.53,-216 1455.53,-216 1455.53,-216 1511.38,-216 1511.38,-216 1517.38,-216 1523.38,-222 1523.38,-228 1523.38,-228 1523.38,-240 1523.38,-240 1523.38,-246 1517.38,-252 1511.38,-252"/>
<text text-anchor="middle" x="1483.46" y="-231" font-family="Monospace" font-size="10.00">:type number1</text>
</g>
<!-- node7078&#45;&gt;node7080 -->
<g id="edge18" class="edge">
<title>node7078&#45;&gt;node7080</title>
<path fill="none" stroke="black" d="M1432.26,-287.7C1440.58,-279.14 1450.76,-268.66 1459.85,-259.3"/>
<polygon fill="black" stroke="black" points="1462.38,-261.72 1466.84,-252.1 1457.36,-256.84 1462.38,-261.72"/>
</g>
<!-- node7081 -->
<g id="node18" class="node">
<title>node7081</title>
<path fill="#cae1ff" stroke="black" d="M1609.93,-252C1609.93,-252 1552.98,-252 1552.98,-252 1546.98,-252 1540.98,-246 1540.98,-240 1540.98,-240 1540.98,-228 1540.98,-228 1540.98,-222 1546.98,-216 1552.98,-216 1552.98,-216 1609.93,-216 1609.93,-216 1615.93,-216 1621.93,-222 1621.93,-228 1621.93,-228 1621.93,-240 1621.93,-240 1621.93,-246 1615.93,-252 1609.93,-252"/>
<text text-anchor="middle" x="1581.46" y="-231" font-family="Monospace" font-size="10.00">:multipleOf 2.0</text>
</g>
<!-- node7078&#45;&gt;node7081 -->
<g id="edge19" class="edge">
<title>node7078&#45;&gt;node7081</title>
<path fill="none" stroke="black" d="M1442.5,-293.6C1466.62,-283.42 1502.55,-268.27 1531.83,-255.93"/>
<polygon fill="black" stroke="black" points="1533.22,-259.14 1541.08,-252.03 1530.5,-252.69 1533.22,-259.14"/>
</g>
<!-- node7083 -->
<g id="node20" class="node">
<title>node7083</title>
<path fill="#cae1ff" stroke="black" d="M1691.2,-252C1691.2,-252 1651.71,-252 1651.71,-252 1645.71,-252 1639.71,-246 1639.71,-240 1639.71,-240 1639.71,-228 1639.71,-228 1639.71,-222 1645.71,-216 1651.71,-216 1651.71,-216 1691.2,-216 1691.2,-216 1697.2,-216 1703.2,-222 1703.2,-228 1703.2,-228 1703.2,-240 1703.2,-240 1703.2,-246 1697.2,-252 1691.2,-252"/>
<text text-anchor="middle" x="1671.46" y="-231" font-family="Monospace" font-size="10.00">:type array</text>
</g>
<!-- node7082&#45;&gt;node7083 -->
<g id="edge20" class="edge">
<title>node7082&#45;&gt;node7083</title>
<path fill="none" stroke="black" d="M1764.23,-289.12C1748.09,-279.7 1727.4,-267.63 1709.65,-257.28"/>
<polygon fill="black" stroke="black" points="1711.08,-254.06 1700.67,-252.04 1707.55,-260.11 1711.08,-254.06"/>
</g>
<!-- node7084 -->
<g id="node21" class="node">
<title>node7084</title>
<path fill="#cae1ff" stroke="black" d="M1768.31,-252C1768.31,-252 1732.6,-252 1732.6,-252 1726.6,-252 1720.6,-246 1720.6,-240 1720.6,-240 1720.6,-228 1720.6,-228 1720.6,-222 1726.6,-216 1732.6,-216 1732.6,-216 1768.31,-216 1768.31,-216 1774.31,-216 1780.31,-222 1780.31,-228 1780.31,-228 1780.31,-240 1780.31,-240 1780.31,-246 1774.31,-252 1768.31,-252"/>
<text text-anchor="middle" x="1750.46" y="-231" font-family="Monospace" font-size="10.00">:title role2</text>
</g>
<!-- node7082&#45;&gt;node7084 -->
<g id="edge21" class="edge">
<title>node7082&#45;&gt;node7084</title>
<path fill="none" stroke="black" d="M1781.32,-287.7C1776.6,-279.64 1770.89,-269.89 1765.67,-260.98"/>
<polygon fill="black" stroke="black" points="1768.55,-258.96 1760.47,-252.1 1762.51,-262.5 1768.55,-258.96"/>
</g>
<!-- node7085 -->
<g id="node22" class="node">
<title>node7085</title>
<path fill="#cae1ff" stroke="black" d="M1854.14,-252C1854.14,-252 1810.78,-252 1810.78,-252 1804.78,-252 1798.78,-246 1798.78,-240 1798.78,-240 1798.78,-228 1798.78,-228 1798.78,-222 1804.78,-216 1810.78,-216 1810.78,-216 1854.14,-216 1854.14,-216 1860.14,-216 1866.14,-222 1866.14,-228 1866.14,-228 1866.14,-240 1866.14,-240 1866.14,-246 1860.14,-252 1854.14,-252"/>
<text text-anchor="middle" x="1832.46" y="-231" font-family="Monospace" font-size="10.00">:minItems 2</text>
</g>
<!-- node7082&#45;&gt;node7085 -->
<g id="edge22" class="edge">
<title>node7082&#45;&gt;node7085</title>
<path fill="none" stroke="black" d="M1801.59,-287.7C1806.31,-279.64 1812.02,-269.89 1817.24,-260.98"/>
<polygon fill="black" stroke="black" points="1820.4,-262.5 1822.44,-252.1 1814.36,-258.96 1820.4,-262.5"/>
</g>
<!-- node7086 -->
<g id="node23" class="node">
<title>node7086</title>
<path fill="#cae1ff" stroke="black" d="M1948.48,-252C1948.48,-252 1896.44,-252 1896.44,-252 1890.44,-252 1884.44,-246 1884.44,-240 1884.44,-240 1884.44,-228 1884.44,-228 1884.44,-222 1890.44,-216 1896.44,-216 1896.44,-216 1948.48,-216 1948.48,-216 1954.48,-216 1960.48,-222 1960.48,-228 1960.48,-228 1960.48,-240 1960.48,-240 1960.48,-246 1954.48,-252 1948.48,-252"/>
<text text-anchor="middle" x="1922.46" y="-231" font-family="Monospace" font-size="10.00">:maxItems 10</text>
</g>
<!-- node7082&#45;&gt;node7086 -->
<g id="edge23" class="edge">
<title>node7082&#45;&gt;node7086</title>
<path fill="none" stroke="black" d="M1818.6,-290.5C1836.67,-280.84 1860.74,-267.98 1881.17,-257.06"/>
<polygon fill="black" stroke="black" points="1883.09,-260 1890.26,-252.2 1879.79,-253.83 1883.09,-260"/>
</g>
<!-- node7087 -->
<g id="node24" class="node">
<title>node7087</title>
<path fill="snow" stroke="black" d="M2020.46,-252C2020.46,-252 1990.46,-252 1990.46,-252 1984.46,-252 1978.46,-246 1978.46,-240 1978.46,-240 1978.46,-228 1978.46,-228 1978.46,-222 1984.46,-216 1990.46,-216 1990.46,-216 2020.46,-216 2020.46,-216 2026.46,-216 2032.46,-222 2032.46,-228 2032.46,-228 2032.46,-240 2032.46,-240 2032.46,-246 2026.46,-252 2020.46,-252"/>
<text text-anchor="middle" x="2005.46" y="-231" font-family="Monospace" font-size="10.00">:items</text>
</g>
<!-- node7082&#45;&gt;node7087 -->
<g id="edge24" class="edge">
<title>node7082&#45;&gt;node7087</title>
<path fill="none" stroke="black" d="M1818.72,-298.26C1852.16,-289.7 1910.62,-273.78 1968.47,-252.1"/>
<polygon fill="black" stroke="black" points="1970.02,-255.26 1978.12,-248.43 1967.53,-248.72 1970.02,-255.26"/>
</g>
<!-- node7088 -->
<g id="node25" class="node">
<title>node7088</title>
<path fill="#cae1ff" stroke="black" d="M1916.1,-180C1916.1,-180 1872.81,-180 1872.81,-180 1866.81,-180 1860.81,-174 1860.81,-168 1860.81,-168 1860.81,-156 1860.81,-156 1860.81,-150 1866.81,-144 1872.81,-144 1872.81,-144 1916.1,-144 1916.1,-144 1922.1,-144 1928.1,-150 1928.1,-156 1928.1,-156 1928.1,-168 1928.1,-168 1928.1,-174 1922.1,-180 1916.1,-180"/>
<text text-anchor="middle" x="1894.46" y="-159" font-family="Monospace" font-size="10.00">:type object</text>
</g>
<!-- node7087&#45;&gt;node7088 -->
<g id="edge25" class="edge">
<title>node7087&#45;&gt;node7088</title>
<path fill="none" stroke="black" d="M1978.3,-215.88C1963.92,-206.81 1946.07,-195.55 1930.55,-185.76"/>
<polygon fill="black" stroke="black" points="1932.04,-182.56 1921.71,-180.19 1928.31,-188.48 1932.04,-182.56"/>
</g>
<!-- node7089 -->
<g id="node26" class="node">
<title>node7089</title>
<path fill="#cae1ff" stroke="black" d="M2036.6,-180C2036.6,-180 1958.31,-180 1958.31,-180 1952.31,-180 1946.31,-174 1946.31,-168 1946.31,-168 1946.31,-156 1946.31,-156 1946.31,-150 1952.31,-144 1958.31,-144 1958.31,-144 2036.6,-144 2036.6,-144 2042.6,-144 2048.6,-150 2048.6,-156 2048.6,-156 2048.6,-168 2048.6,-168 2048.6,-174 2042.6,-180 2036.6,-180"/>
<text text-anchor="middle" x="1997.46" y="-159" font-family="Monospace" font-size="10.00">:description class B</text>
</g>
<!-- node7087&#45;&gt;node7089 -->
<g id="edge26" class="edge">
<title>node7087&#45;&gt;node7089</title>
<path fill="none" stroke="black" d="M2003.48,-215.7C2002.6,-207.98 2001.54,-198.71 2000.55,-190.11"/>
<polygon fill="black" stroke="black" points="2004.02,-189.64 1999.41,-180.1 1997.07,-190.44 2004.02,-189.64"/>
</g>
<!-- node7090 -->
<g id="node27" class="node">
<title>node7090</title>
<path fill="snow" stroke="black" d="M2118.2,-180C2118.2,-180 2078.71,-180 2078.71,-180 2072.71,-180 2066.71,-174 2066.71,-168 2066.71,-168 2066.71,-156 2066.71,-156 2066.71,-150 2072.71,-144 2078.71,-144 2078.71,-144 2118.2,-144 2118.2,-144 2124.2,-144 2130.2,-150 2130.2,-156 2130.2,-156 2130.2,-168 2130.2,-168 2130.2,-174 2124.2,-180 2118.2,-180"/>
<text text-anchor="middle" x="2098.46" y="-159" font-family="Monospace" font-size="10.00">:properties</text>
</g>
<!-- node7087&#45;&gt;node7090 -->
<g id="edge27" class="edge">
<title>node7087&#45;&gt;node7090</title>
<path fill="none" stroke="black" d="M2028.44,-215.7C2040.27,-206.8 2054.85,-195.82 2067.63,-186.2"/>
<polygon fill="black" stroke="black" points="2069.85,-188.91 2075.73,-180.1 2065.64,-183.32 2069.85,-188.91"/>
</g>
<!-- node7091 -->
<g id="node28" class="node">
<title>node7091</title>
<path fill="snow" stroke="black" d="M2113.46,-108C2113.46,-108 2083.46,-108 2083.46,-108 2077.46,-108 2071.46,-102 2071.46,-96 2071.46,-96 2071.46,-84 2071.46,-84 2071.46,-78 2077.46,-72 2083.46,-72 2083.46,-72 2113.46,-72 2113.46,-72 2119.46,-72 2125.46,-78 2125.46,-84 2125.46,-84 2125.46,-96 2125.46,-96 2125.46,-102 2119.46,-108 2113.46,-108"/>
<text text-anchor="middle" x="2098.46" y="-87" font-family="Monospace" font-size="10.00">:b1</text>
</g>
<!-- node7090&#45;&gt;node7091 -->
<g id="edge28" class="edge">
<title>node7090&#45;&gt;node7091</title>
<path fill="none" stroke="black" d="M2098.46,-143.7C2098.46,-135.98 2098.46,-126.71 2098.46,-118.11"/>
<polygon fill="black" stroke="black" points="2101.96,-118.1 2098.46,-108.1 2094.96,-118.1 2101.96,-118.1"/>
</g>
<!-- node7092 -->
<g id="node29" class="node">
<title>node7092</title>
<path fill="#cae1ff" stroke="black" d="M2089.97,-36C2089.97,-36 2010.94,-36 2010.94,-36 2004.94,-36 1998.94,-30 1998.94,-24 1998.94,-24 1998.94,-12 1998.94,-12 1998.94,-6 2004.94,0 2010.94,0 2010.94,0 2089.97,0 2089.97,0 2095.97,0 2101.97,-6 2101.97,-12 2101.97,-12 2101.97,-24 2101.97,-24 2101.97,-30 2095.97,-36 2089.97,-36"/>
<text text-anchor="middle" x="2050.46" y="-15" font-family="Monospace" font-size="10.00">:type [&quot;string&quot; &quot;null&quot;]</text>
</g>
<!-- node7091&#45;&gt;node7092 -->
<g id="edge29" class="edge">
<title>node7091&#45;&gt;node7092</title>
<path fill="none" stroke="black" d="M2086.59,-71.7C2080.95,-63.47 2074.1,-53.48 2067.89,-44.42"/>
<polygon fill="black" stroke="black" points="2070.73,-42.37 2062.18,-36.1 2064.95,-46.33 2070.73,-42.37"/>
</g>
<!-- node7093 -->
<g id="node30" class="node">
<title>node7093</title>
<path fill="#cae1ff" stroke="black" d="M2162.46,-36C2162.46,-36 2132.46,-36 2132.46,-36 2126.46,-36 2120.46,-30 2120.46,-24 2120.46,-24 2120.46,-12 2120.46,-12 2120.46,-6 2126.46,0 2132.46,0 2132.46,0 2162.46,0 2162.46,0 2168.46,0 2174.46,-6 2174.46,-12 2174.46,-12 2174.46,-24 2174.46,-24 2174.46,-30 2168.46,-36 2162.46,-36"/>
<text text-anchor="middle" x="2147.46" y="-15" font-family="Monospace" font-size="10.00">:title b1</text>
</g>
<!-- node7091&#45;&gt;node7093 -->
<g id="edge30" class="edge">
<title>node7091&#45;&gt;node7093</title>
<path fill="none" stroke="black" d="M2110.57,-71.7C2116.32,-63.47 2123.32,-53.48 2129.66,-44.42"/>
<polygon fill="black" stroke="black" points="2132.62,-46.3 2135.48,-36.1 2126.88,-42.29 2132.62,-46.3"/>
</g>
<!-- node7095 -->
<g id="node32" class="node">
<title>node7095</title>
<path fill="#cae1ff" stroke="black" d="M2116.2,-252C2116.2,-252 2076.71,-252 2076.71,-252 2070.71,-252 2064.71,-246 2064.71,-240 2064.71,-240 2064.71,-228 2064.71,-228 2064.71,-222 2070.71,-216 2076.71,-216 2076.71,-216 2116.2,-216 2116.2,-216 2122.2,-216 2128.2,-222 2128.2,-228 2128.2,-228 2128.2,-240 2128.2,-240 2128.2,-246 2122.2,-252 2116.2,-252"/>
<text text-anchor="middle" x="2096.46" y="-231" font-family="Monospace" font-size="10.00">:type array</text>
</g>
<!-- node7094&#45;&gt;node7095 -->
<g id="edge31" class="edge">
<title>node7094&#45;&gt;node7095</title>
<path fill="none" stroke="black" d="M2096.46,-287.7C2096.46,-279.98 2096.46,-270.71 2096.46,-262.11"/>
<polygon fill="black" stroke="black" points="2099.96,-262.1 2096.46,-252.1 2092.96,-262.1 2099.96,-262.1"/>
</g>
<!-- node7096 -->
<g id="node33" class="node">
<title>node7096</title>
<path fill="snow" stroke="black" d="M2195.46,-252C2195.46,-252 2165.46,-252 2165.46,-252 2159.46,-252 2153.46,-246 2153.46,-240 2153.46,-240 2153.46,-228 2153.46,-228 2153.46,-222 2159.46,-216 2165.46,-216 2165.46,-216 2195.46,-216 2195.46,-216 2201.46,-216 2207.46,-222 2207.46,-228 2207.46,-228 2207.46,-240 2207.46,-240 2207.46,-246 2201.46,-252 2195.46,-252"/>
<text text-anchor="middle" x="2180.46" y="-231" font-family="Monospace" font-size="10.00">:items</text>
</g>
<!-- node7094&#45;&gt;node7096 -->
<g id="edge32" class="edge">
<title>node7094&#45;&gt;node7096</title>
<path fill="none" stroke="black" d="M2117.22,-287.7C2127.7,-278.97 2140.57,-268.24 2151.96,-258.75"/>
<polygon fill="black" stroke="black" points="2154.49,-261.19 2159.93,-252.1 2150.01,-255.82 2154.49,-261.19"/>
</g>
<!-- node7097 -->
<g id="node34" class="node">
<title>node7097</title>
<path fill="#cae1ff" stroke="black" d="M2200.87,-180C2200.87,-180 2160.04,-180 2160.04,-180 2154.04,-180 2148.04,-174 2148.04,-168 2148.04,-168 2148.04,-156 2148.04,-156 2148.04,-150 2154.04,-144 2160.04,-144 2160.04,-144 2200.87,-144 2200.87,-144 2206.87,-144 2212.87,-150 2212.87,-156 2212.87,-156 2212.87,-168 2212.87,-168 2212.87,-174 2206.87,-180 2200.87,-180"/>
<text text-anchor="middle" x="2180.46" y="-159" font-family="Monospace" font-size="10.00">:type string</text>
</g>
<!-- node7096&#45;&gt;node7097 -->
<g id="edge33" class="edge">
<title>node7096&#45;&gt;node7097</title>
<path fill="none" stroke="black" d="M2180.46,-215.7C2180.46,-207.98 2180.46,-198.71 2180.46,-190.11"/>
<polygon fill="black" stroke="black" points="2183.96,-190.1 2180.46,-180.1 2176.96,-190.1 2183.96,-190.1"/>
</g>
<!-- node7098 -->
<g id="node35" class="node">
<title>node7098</title>
<path fill="#cae1ff" stroke="black" d="M2392.3,-180C2392.3,-180 2242.61,-180 2242.61,-180 2236.61,-180 2230.61,-174 2230.61,-168 2230.61,-168 2230.61,-156 2230.61,-156 2230.61,-150 2236.61,-144 2242.61,-144 2242.61,-144 2392.3,-144 2392.3,-144 2398.3,-144 2404.3,-150 2404.3,-156 2404.3,-156 2404.3,-168 2404.3,-168 2404.3,-174 2398.3,-180 2392.3,-180"/>
<text text-anchor="middle" x="2317.46" y="-159" font-family="Monospace" font-size="10.00">:enum [&quot;male&quot; &quot;female&quot; &quot;others&quot; &quot;x&quot;]</text>
</g>
<!-- node7096&#45;&gt;node7098 -->
<g id="edge34" class="edge">
<title>node7096&#45;&gt;node7098</title>
<path fill="none" stroke="black" d="M2207.52,-219.17C2226.76,-209.34 2252.99,-195.94 2275,-184.69"/>
<polygon fill="black" stroke="black" points="2276.83,-187.69 2284.15,-180.02 2273.65,-181.45 2276.83,-187.69"/>
</g>
</g>
</svg>
