<?xml version="1.0" encoding="UTF-8" standalone="no"?>
<!DOCTYPE svg PUBLIC "-//W3C//DTD SVG 1.1//EN"
 "http://www.w3.org/Graphics/SVG/1.1/DTD/svg11.dtd">
<!-- Generated by graphviz version 2.43.0 (0)
 -->
<!-- Title: %3 Pages: 1 -->
<svg width="3322pt" height="678pt"
 viewBox="0.00 0.00 2391.69 488.00" xmlns="http://www.w3.org/2000/svg" xmlns:xlink="http://www.w3.org/1999/xlink">
<g id="graph0" class="graph" transform="scale(0.72 0.72) rotate(0) translate(4 484)">
<title>%3</title>
<polygon fill="white" stroke="transparent" points="-4,4 -4,-484 2387.69,-484 2387.69,4 -4,4"/>
<!-- node7027 -->
<g id="node1" class="node">
<title>node7027</title>
<path fill="#cae1ff" stroke="black" d="M1342.12,-480C1342.12,-480 1124.79,-480 1124.79,-480 1118.79,-480 1112.79,-474 1112.79,-468 1112.79,-468 1112.79,-444 1112.79,-444 1112.79,-438 1118.79,-432 1124.79,-432 1124.79,-432 1342.12,-432 1342.12,-432 1348.12,-432 1354.12,-438 1354.12,-444 1354.12,-444 1354.12,-468 1354.12,-468 1354.12,-474 1348.12,-480 1342.12,-480"/>
<text text-anchor="middle" x="1233.46" y="-468" font-family="Monospace" font-size="10.00">:$id https://example.com/person.schema.json</text>
<text text-anchor="middle" x="1233.46" y="-458" font-family="Monospace" font-size="10.00">:$schema http://json&#45;schema.org/draft&#45;07/schema#</text>
<text text-anchor="middle" x="1233.46" y="-448" font-family="Monospace" font-size="10.00">:title Person</text>
<text text-anchor="middle" x="1233.46" y="-438" font-family="Monospace" font-size="10.00">:type object</text>
</g>
<!-- node7028 -->
<g id="node2" class="node">
<title>node7028</title>
<path fill="snow" stroke="black" d="M1253.2,-396C1253.2,-396 1213.71,-396 1213.71,-396 1207.71,-396 1201.71,-390 1201.71,-384 1201.71,-384 1201.71,-372 1201.71,-372 1201.71,-366 1207.71,-360 1213.71,-360 1213.71,-360 1253.2,-360 1253.2,-360 1259.2,-360 1265.2,-366 1265.2,-372 1265.2,-372 1265.2,-384 1265.2,-384 1265.2,-390 1259.2,-396 1253.2,-396"/>
<text text-anchor="middle" x="1233.46" y="-375" font-family="Monospace" font-size="10.00">:properties</text>
</g>
<!-- node7027&#45;&gt;node7028 -->
<g id="edge1" class="edge">
<title>node7027&#45;&gt;node7028</title>
<path fill="none" stroke="black" d="M1233.46,-431.78C1233.46,-423.68 1233.46,-414.52 1233.46,-406.12"/>
<polygon fill="black" stroke="black" points="1236.96,-406.04 1233.46,-396.04 1229.96,-406.04 1236.96,-406.04"/>
</g>
<!-- node7029 -->
<g id="node3" class="node">
<title>node7029</title>
<path fill="snow" stroke="black" d="M217.02,-324C217.02,-324 179.89,-324 179.89,-324 173.89,-324 167.89,-318 167.89,-312 167.89,-312 167.89,-300 167.89,-300 167.89,-294 173.89,-288 179.89,-288 179.89,-288 217.02,-288 217.02,-288 223.02,-288 229.02,-294 229.02,-300 229.02,-300 229.02,-312 229.02,-312 229.02,-318 223.02,-324 217.02,-324"/>
<text text-anchor="middle" x="198.46" y="-303" font-family="Monospace" font-size="10.00">:firstName</text>
</g>
<!-- node7028&#45;&gt;node7029 -->
<g id="edge2" class="edge">
<title>node7028&#45;&gt;node7029</title>
<path fill="none" stroke="black" d="M1201.63,-374.85C1050.85,-364.65 408.61,-321.21 239.44,-309.77"/>
<polygon fill="black" stroke="black" points="239.43,-306.26 229.21,-309.08 238.95,-313.25 239.43,-306.26"/>
</g>
<!-- node7033 -->
<g id="node7" class="node">
<title>node7033</title>
<path fill="snow" stroke="black" d="M567.97,-324C567.97,-324 530.94,-324 530.94,-324 524.94,-324 518.94,-318 518.94,-312 518.94,-312 518.94,-300 518.94,-300 518.94,-294 524.94,-288 530.94,-288 530.94,-288 567.97,-288 567.97,-288 573.97,-288 579.97,-294 579.97,-300 579.97,-300 579.97,-312 579.97,-312 579.97,-318 573.97,-324 567.97,-324"/>
<text text-anchor="middle" x="549.46" y="-303" font-family="Monospace" font-size="10.00">:lastName</text>
</g>
<!-- node7028&#45;&gt;node7033 -->
<g id="edge3" class="edge">
<title>node7028&#45;&gt;node7033</title>
<path fill="none" stroke="black" d="M1201.38,-373.72C1089.36,-362.25 715.56,-324 590.56,-311.21"/>
<polygon fill="black" stroke="black" points="590.59,-307.69 580.28,-310.15 589.87,-314.65 590.59,-307.69"/>
</g>
<!-- node7036 -->
<g id="node10" class="node">
<title>node7036</title>
<path fill="snow" stroke="black" d="M1134.46,-324C1134.46,-324 1104.46,-324 1104.46,-324 1098.46,-324 1092.46,-318 1092.46,-312 1092.46,-312 1092.46,-300 1092.46,-300 1092.46,-294 1098.46,-288 1104.46,-288 1104.46,-288 1134.46,-288 1134.46,-288 1140.46,-288 1146.46,-294 1146.46,-300 1146.46,-300 1146.46,-312 1146.46,-312 1146.46,-318 1140.46,-324 1134.46,-324"/>
<text text-anchor="middle" x="1119.46" y="-303" font-family="Monospace" font-size="10.00">:age</text>
</g>
<!-- node7028&#45;&gt;node7036 -->
<g id="edge4" class="edge">
<title>node7028&#45;&gt;node7036</title>
<path fill="none" stroke="black" d="M1205.57,-359.88C1190.44,-350.59 1171.57,-339 1155.36,-329.04"/>
<polygon fill="black" stroke="black" points="1157.01,-325.96 1146.66,-323.71 1153.35,-331.92 1157.01,-325.96"/>
</g>
<!-- node7041 -->
<g id="node15" class="node">
<title>node7041</title>
<path fill="snow" stroke="black" d="M1430.46,-324C1430.46,-324 1400.46,-324 1400.46,-324 1394.46,-324 1388.46,-318 1388.46,-312 1388.46,-312 1388.46,-300 1388.46,-300 1388.46,-294 1394.46,-288 1400.46,-288 1400.46,-288 1430.46,-288 1430.46,-288 1436.46,-288 1442.46,-294 1442.46,-300 1442.46,-300 1442.46,-312 1442.46,-312 1442.46,-318 1436.46,-324 1430.46,-324"/>
<text text-anchor="middle" x="1415.46" y="-303" font-family="Monospace" font-size="10.00">:salary</text>
</g>
<!-- node7028&#45;&gt;node7041 -->
<g id="edge5" class="edge">
<title>node7028&#45;&gt;node7041</title>
<path fill="none" stroke="black" d="M1265.16,-364.81C1296.86,-352.61 1345.57,-333.88 1378.88,-321.07"/>
<polygon fill="black" stroke="black" points="1380.19,-324.31 1388.27,-317.46 1377.68,-317.78 1380.19,-324.31"/>
</g>
<!-- node7045 -->
<g id="node19" class="node">
<title>node7045</title>
<path fill="snow" stroke="black" d="M1806.46,-324C1806.46,-324 1776.46,-324 1776.46,-324 1770.46,-324 1764.46,-318 1764.46,-312 1764.46,-312 1764.46,-300 1764.46,-300 1764.46,-294 1770.46,-288 1776.46,-288 1776.46,-288 1806.46,-288 1806.46,-288 1812.46,-288 1818.46,-294 1818.46,-300 1818.46,-300 1818.46,-312 1818.46,-312 1818.46,-318 1812.46,-324 1806.46,-324"/>
<text text-anchor="middle" x="1791.46" y="-303" font-family="Monospace" font-size="10.00">:role2</text>
</g>
<!-- node7028&#45;&gt;node7045 -->
<g id="edge6" class="edge">
<title>node7028&#45;&gt;node7045</title>
<path fill="none" stroke="black" d="M1265.46,-372.99C1362.18,-360.85 1651.11,-324.61 1754.31,-311.66"/>
<polygon fill="black" stroke="black" points="1754.78,-315.13 1764.27,-310.41 1753.91,-308.18 1754.78,-315.13"/>
</g>
<!-- node7057 -->
<g id="node31" class="node">
<title>node7057</title>
<path fill="snow" stroke="black" d="M2105.46,-324C2105.46,-324 2075.46,-324 2075.46,-324 2069.46,-324 2063.46,-318 2063.46,-312 2063.46,-312 2063.46,-300 2063.46,-300 2063.46,-294 2069.46,-288 2075.46,-288 2075.46,-288 2105.46,-288 2105.46,-288 2111.46,-288 2117.46,-294 2117.46,-300 2117.46,-300 2117.46,-312 2117.46,-312 2117.46,-318 2111.46,-324 2105.46,-324"/>
<text text-anchor="middle" x="2090.46" y="-303" font-family="Monospace" font-size="10.00">:gender</text>
</g>
<!-- node7028&#45;&gt;node7057 -->
<g id="edge7" class="edge">
<title>node7028&#45;&gt;node7057</title>
<path fill="none" stroke="black" d="M1265.23,-374.4C1398.22,-363.54 1909.87,-321.75 2053.04,-310.06"/>
<polygon fill="black" stroke="black" points="2053.4,-313.54 2063.08,-309.24 2052.83,-306.56 2053.4,-313.54"/>
</g>
<!-- node7030 -->
<g id="node4" class="node">
<title>node7030</title>
<path fill="#cae1ff" stroke="black" d="M52.87,-252C52.87,-252 12.04,-252 12.04,-252 6.04,-252 0.04,-246 0.04,-240 0.04,-240 0.04,-228 0.04,-228 0.04,-222 6.04,-216 12.04,-216 12.04,-216 52.87,-216 52.87,-216 58.87,-216 64.87,-222 64.87,-228 64.87,-228 64.87,-240 64.87,-240 64.87,-246 58.87,-252 52.87,-252"/>
<text text-anchor="middle" x="32.46" y="-231" font-family="Monospace" font-size="10.00">:type string</text>
</g>
<!-- node7029&#45;&gt;node7030 -->
<g id="edge8" class="edge">
<title>node7029&#45;&gt;node7030</title>
<path fill="none" stroke="black" d="M167.62,-292C141.42,-280.95 103.56,-264.99 74.57,-252.76"/>
<polygon fill="black" stroke="black" points="75.69,-249.43 65.11,-248.77 72.97,-255.88 75.69,-249.43"/>
</g>
<!-- node7031 -->
<g id="node5" class="node">
<title>node7031</title>
<path fill="#cae1ff" stroke="black" d="M153.61,-252C153.61,-252 95.3,-252 95.3,-252 89.3,-252 83.3,-246 83.3,-240 83.3,-240 83.3,-228 83.3,-228 83.3,-222 89.3,-216 95.3,-216 95.3,-216 153.61,-216 153.61,-216 159.61,-216 165.61,-222 165.61,-228 165.61,-228 165.61,-240 165.61,-240 165.61,-246 159.61,-252 153.61,-252"/>
<text text-anchor="middle" x="124.46" y="-231" font-family="Monospace" font-size="10.00">:maxLength 20</text>
</g>
<!-- node7029&#45;&gt;node7031 -->
<g id="edge9" class="edge">
<title>node7029&#45;&gt;node7031</title>
<path fill="none" stroke="black" d="M180.16,-287.7C171.02,-279.05 159.82,-268.45 149.86,-259.03"/>
<polygon fill="black" stroke="black" points="152.21,-256.43 142.54,-252.1 147.4,-261.52 152.21,-256.43"/>
</g>
<!-- node7032 -->
<g id="node6" class="node">
<title>node7032</title>
<path fill="#cae1ff" stroke="black" d="M347.65,-252C347.65,-252 195.26,-252 195.26,-252 189.26,-252 183.26,-246 183.26,-240 183.26,-240 183.26,-228 183.26,-228 183.26,-222 189.26,-216 195.26,-216 195.26,-216 347.65,-216 347.65,-216 353.65,-216 359.65,-222 359.65,-228 359.65,-228 359.65,-240 359.65,-240 359.65,-246 353.65,-252 347.65,-252"/>
<text text-anchor="middle" x="271.46" y="-231" font-family="Monospace" font-size="10.00">:description The person&#39;s first name.</text>
</g>
<!-- node7029&#45;&gt;node7032 -->
<g id="edge10" class="edge">
<title>node7029&#45;&gt;node7032</title>
<path fill="none" stroke="black" d="M216.5,-287.7C225.52,-279.05 236.57,-268.45 246.4,-259.03"/>
<polygon fill="black" stroke="black" points="248.82,-261.55 253.62,-252.1 243.98,-256.5 248.82,-261.55"/>
</g>
<!-- node7034 -->
<g id="node8" class="node">
<title>node7034</title>
<path fill="#cae1ff" stroke="black" d="M430.87,-252C430.87,-252 390.04,-252 390.04,-252 384.04,-252 378.04,-246 378.04,-240 378.04,-240 378.04,-228 378.04,-228 378.04,-222 384.04,-216 390.04,-216 390.04,-216 430.87,-216 430.87,-216 436.87,-216 442.87,-222 442.87,-228 442.87,-228 442.87,-240 442.87,-240 442.87,-246 436.87,-252 430.87,-252"/>
<text text-anchor="middle" x="410.46" y="-231" font-family="Monospace" font-size="10.00">:type string</text>
</g>
<!-- node7033&#45;&gt;node7034 -->
<g id="edge11" class="edge">
<title>node7033&#45;&gt;node7034</title>
<path fill="none" stroke="black" d="M518.61,-289.46C499.1,-279.64 473.63,-266.82 452.31,-256.08"/>
<polygon fill="black" stroke="black" points="453.66,-252.84 443.15,-251.47 450.51,-259.09 453.66,-252.84"/>
</g>
<!-- node7035 -->
<g id="node9" class="node">
<title>node7035</title>
<path fill="#cae1ff" stroke="black" d="M625.6,-252C625.6,-252 473.31,-252 473.31,-252 467.31,-252 461.31,-246 461.31,-240 461.31,-240 461.31,-228 461.31,-228 461.31,-222 467.31,-216 473.31,-216 473.31,-216 625.6,-216 625.6,-216 631.6,-216 637.6,-222 637.6,-228 637.6,-228 637.6,-240 637.6,-240 637.6,-246 631.6,-252 625.6,-252"/>
<text text-anchor="middle" x="549.46" y="-231" font-family="Monospace" font-size="10.00">:description The person&#39;s last name.</text>
</g>
<!-- node7033&#45;&gt;node7035 -->
<g id="edge12" class="edge">
<title>node7033&#45;&gt;node7035</title>
<path fill="none" stroke="black" d="M549.46,-287.7C549.46,-279.98 549.46,-270.71 549.46,-262.11"/>
<polygon fill="black" stroke="black" points="552.96,-262.1 549.46,-252.1 545.96,-262.1 552.96,-262.1"/>
</g>
<!-- node7037 -->
<g id="node11" class="node">
<title>node7037</title>
<path fill="#cae1ff" stroke="black" d="M967.35,-252C967.35,-252 667.56,-252 667.56,-252 661.56,-252 655.56,-246 655.56,-240 655.56,-240 655.56,-228 655.56,-228 655.56,-222 661.56,-216 667.56,-216 667.56,-216 967.35,-216 967.35,-216 973.35,-216 979.35,-222 979.35,-228 979.35,-228 979.35,-240 979.35,-240 979.35,-246 973.35,-252 967.35,-252"/>
<text text-anchor="middle" x="817.46" y="-231" font-family="Monospace" font-size="10.00">:description Age in years which must be equal to or greater than zero.</text>
</g>
<!-- node7036&#45;&gt;node7037 -->
<g id="edge13" class="edge">
<title>node7036&#45;&gt;node7037</title>
<path fill="none" stroke="black" d="M1092.39,-298.73C1049.72,-288.84 965.07,-269.22 900.91,-254.34"/>
<polygon fill="black" stroke="black" points="901.33,-250.85 890.8,-252 899.75,-257.67 901.33,-250.85"/>
</g>
<!-- node7038 -->
<g id="node12" class="node">
<title>node7038</title>
<path fill="#cae1ff" stroke="black" d="M1055.99,-252C1055.99,-252 1008.92,-252 1008.92,-252 1002.92,-252 996.92,-246 996.92,-240 996.92,-240 996.92,-228 996.92,-228 996.92,-222 1002.92,-216 1008.92,-216 1008.92,-216 1055.99,-216 1055.99,-216 1061.99,-216 1067.99,-222 1067.99,-228 1067.99,-228 1067.99,-240 1067.99,-240 1067.99,-246 1061.99,-252 1055.99,-252"/>
<text text-anchor="middle" x="1032.46" y="-231" font-family="Monospace" font-size="10.00">:type integer</text>
</g>
<!-- node7036&#45;&gt;node7038 -->
<g id="edge14" class="edge">
<title>node7036&#45;&gt;node7038</title>
<path fill="none" stroke="black" d="M1097.95,-287.7C1086.99,-278.88 1073.51,-268.03 1061.63,-258.47"/>
<polygon fill="black" stroke="black" points="1063.7,-255.65 1053.71,-252.1 1059.31,-261.1 1063.7,-255.65"/>
</g>
<!-- node7039 -->
<g id="node13" class="node">
<title>node7039</title>
<path fill="#cae1ff" stroke="black" d="M1141.13,-252C1141.13,-252 1097.78,-252 1097.78,-252 1091.78,-252 1085.78,-246 1085.78,-240 1085.78,-240 1085.78,-228 1085.78,-228 1085.78,-222 1091.78,-216 1097.78,-216 1097.78,-216 1141.13,-216 1141.13,-216 1147.13,-216 1153.13,-222 1153.13,-228 1153.13,-228 1153.13,-240 1153.13,-240 1153.13,-246 1147.13,-252 1141.13,-252"/>
<text text-anchor="middle" x="1119.46" y="-231" font-family="Monospace" font-size="10.00">:minimum 0</text>
</g>
<!-- node7036&#45;&gt;node7039 -->
<g id="edge15" class="edge">
<title>node7036&#45;&gt;node7039</title>
<path fill="none" stroke="black" d="M1119.46,-287.7C1119.46,-279.98 1119.46,-270.71 1119.46,-262.11"/>
<polygon fill="black" stroke="black" points="1122.96,-262.1 1119.46,-252.1 1115.96,-262.1 1122.96,-262.1"/>
</g>
<!-- node7040 -->
<g id="node14" class="node">
<title>node7040</title>
<path fill="#cae1ff" stroke="black" d="M1241.03,-252C1241.03,-252 1183.88,-252 1183.88,-252 1177.88,-252 1171.88,-246 1171.88,-240 1171.88,-240 1171.88,-228 1171.88,-228 1171.88,-222 1177.88,-216 1183.88,-216 1183.88,-216 1241.03,-216 1241.03,-216 1247.03,-216 1253.03,-222 1253.03,-228 1253.03,-228 1253.03,-240 1253.03,-240 1253.03,-246 1247.03,-252 1241.03,-252"/>
<text text-anchor="middle" x="1212.46" y="-231" font-family="Monospace" font-size="10.00">:maximum 100</text>
</g>
<!-- node7036&#45;&gt;node7040 -->
<g id="edge16" class="edge">
<title>node7036&#45;&gt;node7040</title>
<path fill="none" stroke="black" d="M1142.44,-287.7C1154.27,-278.8 1168.85,-267.82 1181.63,-258.2"/>
<polygon fill="black" stroke="black" points="1183.85,-260.91 1189.73,-252.1 1179.64,-255.32 1183.85,-260.91"/>
</g>
<!-- node7042 -->
<g id="node16" class="node">
<title>node7042</title>
<path fill="#cae1ff" stroke="black" d="M1413.31,-252C1413.31,-252 1283.6,-252 1283.6,-252 1277.6,-252 1271.6,-246 1271.6,-240 1271.6,-240 1271.6,-228 1271.6,-228 1271.6,-222 1277.6,-216 1283.6,-216 1283.6,-216 1413.31,-216 1413.31,-216 1419.31,-216 1425.31,-222 1425.31,-228 1425.31,-228 1425.31,-240 1425.31,-240 1425.31,-246 1419.31,-252 1413.31,-252"/>
<text text-anchor="middle" x="1348.46" y="-231" font-family="Monospace" font-size="10.00">:description Salary of a person.</text>
</g>
<!-- node7041&#45;&gt;node7042 -->
<g id="edge17" class="edge">
<title>node7041&#45;&gt;node7042</title>
<path fill="none" stroke="black" d="M1398.89,-287.7C1390.78,-279.22 1380.87,-268.86 1371.98,-259.58"/>
<polygon fill="black" stroke="black" points="1374.27,-256.91 1364.83,-252.1 1369.21,-261.75 1374.27,-256.91"/>
</g>
<!-- node7043 -->
<g id="node17" class="node">
<title>node7043</title>
<path fill="#cae1ff" stroke="black" d="M1511.38,-252C1511.38,-252 1455.53,-252 1455.53,-252 1449.53,-252 1443.53,-246 1443.53,-240 1443.53,-240 1443.53,-228 1443.53,-228 1443.53,-222 1449.53,-216 1455.53,-216 1455.53,-216 1511.38,-216 1511.38,-216 1517.38,-216 1523.38,-222 1523.38,-228 1523.38,-228 1523.38,-240 1523.38,-240 1523.38,-246 1517.38,-252 1511.38,-252"/>
<text text-anchor="middle" x="1483.46" y="-231" font-family="Monospace" font-size="10.00">:type number1</text>
</g>
<!-- node7041&#45;&gt;node7043 -->
<g id="edge18" class="edge">
<title>node7041&#45;&gt;node7043</title>
<path fill="none" stroke="black" d="M1432.26,-287.7C1440.58,-279.14 1450.76,-268.66 1459.85,-259.3"/>
<polygon fill="black" stroke="black" points="1462.38,-261.72 1466.84,-252.1 1457.36,-256.84 1462.38,-261.72"/>
</g>
<!-- node7044 -->
<g id="node18" class="node">
<title>node7044</title>
<path fill="#cae1ff" stroke="black" d="M1609.93,-252C1609.93,-252 1552.98,-252 1552.98,-252 1546.98,-252 1540.98,-246 1540.98,-240 1540.98,-240 1540.98,-228 1540.98,-228 1540.98,-222 1546.98,-216 1552.98,-216 1552.98,-216 1609.93,-216 1609.93,-216 1615.93,-216 1621.93,-222 1621.93,-228 1621.93,-228 1621.93,-240 1621.93,-240 1621.93,-246 1615.93,-252 1609.93,-252"/>
<text text-anchor="middle" x="1581.46" y="-231" font-family="Monospace" font-size="10.00">:multipleOf 1.0</text>
</g>
<!-- node7041&#45;&gt;node7044 -->
<g id="edge19" class="edge">
<title>node7041&#45;&gt;node7044</title>
<path fill="none" stroke="black" d="M1442.5,-293.6C1466.62,-283.42 1502.55,-268.27 1531.83,-255.93"/>
<polygon fill="black" stroke="black" points="1533.22,-259.14 1541.08,-252.03 1530.5,-252.69 1533.22,-259.14"/>
</g>
<!-- node7046 -->
<g id="node20" class="node">
<title>node7046</title>
<path fill="#cae1ff" stroke="black" d="M1691.2,-252C1691.2,-252 1651.71,-252 1651.71,-252 1645.71,-252 1639.71,-246 1639.71,-240 1639.71,-240 1639.71,-228 1639.71,-228 1639.71,-222 1645.71,-216 1651.71,-216 1651.71,-216 1691.2,-216 1691.2,-216 1697.2,-216 1703.2,-222 1703.2,-228 1703.2,-228 1703.2,-240 1703.2,-240 1703.2,-246 1697.2,-252 1691.2,-252"/>
<text text-anchor="middle" x="1671.46" y="-231" font-family="Monospace" font-size="10.00">:type array</text>
</g>
<!-- node7045&#45;&gt;node7046 -->
<g id="edge20" class="edge">
<title>node7045&#45;&gt;node7046</title>
<path fill="none" stroke="black" d="M1764.23,-289.12C1748.09,-279.7 1727.4,-267.63 1709.65,-257.28"/>
<polygon fill="black" stroke="black" points="1711.08,-254.06 1700.67,-252.04 1707.55,-260.11 1711.08,-254.06"/>
</g>
<!-- node7047 -->
<g id="node21" class="node">
<title>node7047</title>
<path fill="#cae1ff" stroke="black" d="M1768.31,-252C1768.31,-252 1732.6,-252 1732.6,-252 1726.6,-252 1720.6,-246 1720.6,-240 1720.6,-240 1720.6,-228 1720.6,-228 1720.6,-222 1726.6,-216 1732.6,-216 1732.6,-216 1768.31,-216 1768.31,-216 1774.31,-216 1780.31,-222 1780.31,-228 1780.31,-228 1780.31,-240 1780.31,-240 1780.31,-246 1774.31,-252 1768.31,-252"/>
<text text-anchor="middle" x="1750.46" y="-231" font-family="Monospace" font-size="10.00">:title role2</text>
</g>
<!-- node7045&#45;&gt;node7047 -->
<g id="edge21" class="edge">
<title>node7045&#45;&gt;node7047</title>
<path fill="none" stroke="black" d="M1781.32,-287.7C1776.6,-279.64 1770.89,-269.89 1765.67,-260.98"/>
<polygon fill="black" stroke="black" points="1768.55,-258.96 1760.47,-252.1 1762.51,-262.5 1768.55,-258.96"/>
</g>
<!-- node7048 -->
<g id="node22" class="node">
<title>node7048</title>
<path fill="#cae1ff" stroke="black" d="M1854.14,-252C1854.14,-252 1810.78,-252 1810.78,-252 1804.78,-252 1798.78,-246 1798.78,-240 1798.78,-240 1798.78,-228 1798.78,-228 1798.78,-222 1804.78,-216 1810.78,-216 1810.78,-216 1854.14,-216 1854.14,-216 1860.14,-216 1866.14,-222 1866.14,-228 1866.14,-228 1866.14,-240 1866.14,-240 1866.14,-246 1860.14,-252 1854.14,-252"/>
<text text-anchor="middle" x="1832.46" y="-231" font-family="Monospace" font-size="10.00">:minItems 1</text>
</g>
<!-- node7045&#45;&gt;node7048 -->
<g id="edge22" class="edge">
<title>node7045&#45;&gt;node7048</title>
<path fill="none" stroke="black" d="M1801.59,-287.7C1806.31,-279.64 1812.02,-269.89 1817.24,-260.98"/>
<polygon fill="black" stroke="black" points="1820.4,-262.5 1822.44,-252.1 1814.36,-258.96 1820.4,-262.5"/>
</g>
<!-- node7049 -->
<g id="node23" class="node">
<title>node7049</title>
<path fill="#cae1ff" stroke="black" d="M1942.92,-252C1942.92,-252 1896,-252 1896,-252 1890,-252 1884,-246 1884,-240 1884,-240 1884,-228 1884,-228 1884,-222 1890,-216 1896,-216 1896,-216 1942.92,-216 1942.92,-216 1948.92,-216 1954.92,-222 1954.92,-228 1954.92,-228 1954.92,-240 1954.92,-240 1954.92,-246 1948.92,-252 1942.92,-252"/>
<text text-anchor="middle" x="1919.46" y="-231" font-family="Monospace" font-size="10.00">:maxItems 5</text>
</g>
<!-- node7045&#45;&gt;node7049 -->
<g id="edge23" class="edge">
<title>node7045&#45;&gt;node7049</title>
<path fill="none" stroke="black" d="M1818.6,-290.15C1836.29,-280.48 1859.68,-267.69 1879.48,-256.86"/>
<polygon fill="black" stroke="black" points="1881.2,-259.91 1888.3,-252.04 1877.84,-253.77 1881.2,-259.91"/>
</g>
<!-- node7050 -->
<g id="node24" class="node">
<title>node7050</title>
<path fill="snow" stroke="black" d="M2014.46,-252C2014.46,-252 1984.46,-252 1984.46,-252 1978.46,-252 1972.46,-246 1972.46,-240 1972.46,-240 1972.46,-228 1972.46,-228 1972.46,-222 1978.46,-216 1984.46,-216 1984.46,-216 2014.46,-216 2014.46,-216 2020.46,-216 2026.46,-222 2026.46,-228 2026.46,-228 2026.46,-240 2026.46,-240 2026.46,-246 2020.46,-252 2014.46,-252"/>
<text text-anchor="middle" x="1999.46" y="-231" font-family="Monospace" font-size="10.00">:items</text>
</g>
<!-- node7045&#45;&gt;node7050 -->
<g id="edge24" class="edge">
<title>node7045&#45;&gt;node7050</title>
<path fill="none" stroke="black" d="M1818.67,-297.9C1851.06,-289.18 1906.82,-273.3 1962.46,-252.13"/>
<polygon fill="black" stroke="black" points="1964.05,-255.27 1972.11,-248.4 1961.52,-248.74 1964.05,-255.27"/>
</g>
<!-- node7051 -->
<g id="node25" class="node">
<title>node7051</title>
<path fill="#cae1ff" stroke="black" d="M1910.1,-180C1910.1,-180 1866.81,-180 1866.81,-180 1860.81,-180 1854.81,-174 1854.81,-168 1854.81,-168 1854.81,-156 1854.81,-156 1854.81,-150 1860.81,-144 1866.81,-144 1866.81,-144 1910.1,-144 1910.1,-144 1916.1,-144 1922.1,-150 1922.1,-156 1922.1,-156 1922.1,-168 1922.1,-168 1922.1,-174 1916.1,-180 1910.1,-180"/>
<text text-anchor="middle" x="1888.46" y="-159" font-family="Monospace" font-size="10.00">:type object</text>
</g>
<!-- node7050&#45;&gt;node7051 -->
<g id="edge25" class="edge">
<title>node7050&#45;&gt;node7051</title>
<path fill="none" stroke="black" d="M1972.3,-215.88C1957.92,-206.81 1940.07,-195.55 1924.55,-185.76"/>
<polygon fill="black" stroke="black" points="1926.04,-182.56 1915.71,-180.19 1922.31,-188.48 1926.04,-182.56"/>
</g>
<!-- node7052 -->
<g id="node26" class="node">
<title>node7052</title>
<path fill="#cae1ff" stroke="black" d="M2030.6,-180C2030.6,-180 1952.31,-180 1952.31,-180 1946.31,-180 1940.31,-174 1940.31,-168 1940.31,-168 1940.31,-156 1940.31,-156 1940.31,-150 1946.31,-144 1952.31,-144 1952.31,-144 2030.6,-144 2030.6,-144 2036.6,-144 2042.6,-150 2042.6,-156 2042.6,-156 2042.6,-168 2042.6,-168 2042.6,-174 2036.6,-180 2030.6,-180"/>
<text text-anchor="middle" x="1991.46" y="-159" font-family="Monospace" font-size="10.00">:description class B</text>
</g>
<!-- node7050&#45;&gt;node7052 -->
<g id="edge26" class="edge">
<title>node7050&#45;&gt;node7052</title>
<path fill="none" stroke="black" d="M1997.48,-215.7C1996.6,-207.98 1995.54,-198.71 1994.55,-190.11"/>
<polygon fill="black" stroke="black" points="1998.02,-189.64 1993.41,-180.1 1991.07,-190.44 1998.02,-189.64"/>
</g>
<!-- node7053 -->
<g id="node27" class="node">
<title>node7053</title>
<path fill="snow" stroke="black" d="M2112.2,-180C2112.2,-180 2072.71,-180 2072.71,-180 2066.71,-180 2060.71,-174 2060.71,-168 2060.71,-168 2060.71,-156 2060.71,-156 2060.71,-150 2066.71,-144 2072.71,-144 2072.71,-144 2112.2,-144 2112.2,-144 2118.2,-144 2124.2,-150 2124.2,-156 2124.2,-156 2124.2,-168 2124.2,-168 2124.2,-174 2118.2,-180 2112.2,-180"/>
<text text-anchor="middle" x="2092.46" y="-159" font-family="Monospace" font-size="10.00">:properties</text>
</g>
<!-- node7050&#45;&gt;node7053 -->
<g id="edge27" class="edge">
<title>node7050&#45;&gt;node7053</title>
<path fill="none" stroke="black" d="M2022.44,-215.7C2034.27,-206.8 2048.85,-195.82 2061.63,-186.2"/>
<polygon fill="black" stroke="black" points="2063.85,-188.91 2069.73,-180.1 2059.64,-183.32 2063.85,-188.91"/>
</g>
<!-- node7054 -->
<g id="node28" class="node">
<title>node7054</title>
<path fill="snow" stroke="black" d="M2107.46,-108C2107.46,-108 2077.46,-108 2077.46,-108 2071.46,-108 2065.46,-102 2065.46,-96 2065.46,-96 2065.46,-84 2065.46,-84 2065.46,-78 2071.46,-72 2077.46,-72 2077.46,-72 2107.46,-72 2107.46,-72 2113.46,-72 2119.46,-78 2119.46,-84 2119.46,-84 2119.46,-96 2119.46,-96 2119.46,-102 2113.46,-108 2107.46,-108"/>
<text text-anchor="middle" x="2092.46" y="-87" font-family="Monospace" font-size="10.00">:b1</text>
</g>
<!-- node7053&#45;&gt;node7054 -->
<g id="edge28" class="edge">
<title>node7053&#45;&gt;node7054</title>
<path fill="none" stroke="black" d="M2092.46,-143.7C2092.46,-135.98 2092.46,-126.71 2092.46,-118.11"/>
<polygon fill="black" stroke="black" points="2095.96,-118.1 2092.46,-108.1 2088.96,-118.1 2095.96,-118.1"/>
</g>
<!-- node7055 -->
<g id="node29" class="node">
<title>node7055</title>
<path fill="#cae1ff" stroke="black" d="M2083.97,-36C2083.97,-36 2004.94,-36 2004.94,-36 1998.94,-36 1992.94,-30 1992.94,-24 1992.94,-24 1992.94,-12 1992.94,-12 1992.94,-6 1998.94,0 2004.94,0 2004.94,0 2083.97,0 2083.97,0 2089.97,0 2095.97,-6 2095.97,-12 2095.97,-12 2095.97,-24 2095.97,-24 2095.97,-30 2089.97,-36 2083.97,-36"/>
<text text-anchor="middle" x="2044.46" y="-15" font-family="Monospace" font-size="10.00">:type [&quot;string&quot; &quot;null&quot;]</text>
</g>
<!-- node7054&#45;&gt;node7055 -->
<g id="edge29" class="edge">
<title>node7054&#45;&gt;node7055</title>
<path fill="none" stroke="black" d="M2080.59,-71.7C2074.95,-63.47 2068.1,-53.48 2061.89,-44.42"/>
<polygon fill="black" stroke="black" points="2064.73,-42.37 2056.18,-36.1 2058.95,-46.33 2064.73,-42.37"/>
</g>
<!-- node7056 -->
<g id="node30" class="node">
<title>node7056</title>
<path fill="#cae1ff" stroke="black" d="M2156.46,-36C2156.46,-36 2126.46,-36 2126.46,-36 2120.46,-36 2114.46,-30 2114.46,-24 2114.46,-24 2114.46,-12 2114.46,-12 2114.46,-6 2120.46,0 2126.46,0 2126.46,0 2156.46,0 2156.46,0 2162.46,0 2168.46,-6 2168.46,-12 2168.46,-12 2168.46,-24 2168.46,-24 2168.46,-30 2162.46,-36 2156.46,-36"/>
<text text-anchor="middle" x="2141.46" y="-15" font-family="Monospace" font-size="10.00">:title b1</text>
</g>
<!-- node7054&#45;&gt;node7056 -->
<g id="edge30" class="edge">
<title>node7054&#45;&gt;node7056</title>
<path fill="none" stroke="black" d="M2104.57,-71.7C2110.32,-63.47 2117.32,-53.48 2123.66,-44.42"/>
<polygon fill="black" stroke="black" points="2126.62,-46.3 2129.48,-36.1 2120.88,-42.29 2126.62,-46.3"/>
</g>
<!-- node7058 -->
<g id="node32" class="node">
<title>node7058</title>
<path fill="#cae1ff" stroke="black" d="M2110.2,-252C2110.2,-252 2070.71,-252 2070.71,-252 2064.71,-252 2058.71,-246 2058.71,-240 2058.71,-240 2058.71,-228 2058.71,-228 2058.71,-222 2064.71,-216 2070.71,-216 2070.71,-216 2110.2,-216 2110.2,-216 2116.2,-216 2122.2,-222 2122.2,-228 2122.2,-228 2122.2,-240 2122.2,-240 2122.2,-246 2116.2,-252 2110.2,-252"/>
<text text-anchor="middle" x="2090.46" y="-231" font-family="Monospace" font-size="10.00">:type array</text>
</g>
<!-- node7057&#45;&gt;node7058 -->
<g id="edge31" class="edge">
<title>node7057&#45;&gt;node7058</title>
<path fill="none" stroke="black" d="M2090.46,-287.7C2090.46,-279.98 2090.46,-270.71 2090.46,-262.11"/>
<polygon fill="black" stroke="black" points="2093.96,-262.1 2090.46,-252.1 2086.96,-262.1 2093.96,-262.1"/>
</g>
<!-- node7059 -->
<g id="node33" class="node">
<title>node7059</title>
<path fill="snow" stroke="black" d="M2189.46,-252C2189.46,-252 2159.46,-252 2159.46,-252 2153.46,-252 2147.46,-246 2147.46,-240 2147.46,-240 2147.46,-228 2147.46,-228 2147.46,-222 2153.46,-216 2159.46,-216 2159.46,-216 2189.46,-216 2189.46,-216 2195.46,-216 2201.46,-222 2201.46,-228 2201.46,-228 2201.46,-240 2201.46,-240 2201.46,-246 2195.46,-252 2189.46,-252"/>
<text text-anchor="middle" x="2174.46" y="-231" font-family="Monospace" font-size="10.00">:items</text>
</g>
<!-- node7057&#45;&gt;node7059 -->
<g id="edge32" class="edge">
<title>node7057&#45;&gt;node7059</title>
<path fill="none" stroke="black" d="M2111.22,-287.7C2121.7,-278.97 2134.57,-268.24 2145.96,-258.75"/>
<polygon fill="black" stroke="black" points="2148.49,-261.19 2153.93,-252.1 2144.01,-255.82 2148.49,-261.19"/>
</g>
<!-- node7060 -->
<g id="node34" class="node">
<title>node7060</title>
<path fill="#cae1ff" stroke="black" d="M2194.87,-180C2194.87,-180 2154.04,-180 2154.04,-180 2148.04,-180 2142.04,-174 2142.04,-168 2142.04,-168 2142.04,-156 2142.04,-156 2142.04,-150 2148.04,-144 2154.04,-144 2154.04,-144 2194.87,-144 2194.87,-144 2200.87,-144 2206.87,-150 2206.87,-156 2206.87,-156 2206.87,-168 2206.87,-168 2206.87,-174 2200.87,-180 2194.87,-180"/>
<text text-anchor="middle" x="2174.46" y="-159" font-family="Monospace" font-size="10.00">:type string</text>
</g>
<!-- node7059&#45;&gt;node7060 -->
<g id="edge33" class="edge">
<title>node7059&#45;&gt;node7060</title>
<path fill="none" stroke="black" d="M2174.46,-215.7C2174.46,-207.98 2174.46,-198.71 2174.46,-190.11"/>
<polygon fill="black" stroke="black" points="2177.96,-190.1 2174.46,-180.1 2170.96,-190.1 2177.96,-190.1"/>
</g>
<!-- node7061 -->
<g id="node35" class="node">
<title>node7061</title>
<path fill="#cae1ff" stroke="black" d="M2371.92,-180C2371.92,-180 2236.99,-180 2236.99,-180 2230.99,-180 2224.99,-174 2224.99,-168 2224.99,-168 2224.99,-156 2224.99,-156 2224.99,-150 2230.99,-144 2236.99,-144 2236.99,-144 2371.92,-144 2371.92,-144 2377.92,-144 2383.92,-150 2383.92,-156 2383.92,-156 2383.92,-168 2383.92,-168 2383.92,-174 2377.92,-180 2371.92,-180"/>
<text text-anchor="middle" x="2304.46" y="-159" font-family="Monospace" font-size="10.00">:enum [&quot;male&quot; &quot;female&quot; &quot;others&quot;]</text>
</g>
<!-- node7059&#45;&gt;node7061 -->
<g id="edge34" class="edge">
<title>node7059&#45;&gt;node7061</title>
<path fill="none" stroke="black" d="M2201.71,-218.33C2219.66,-208.66 2243.48,-195.83 2263.67,-184.96"/>
<polygon fill="black" stroke="black" points="2265.51,-187.94 2272.66,-180.12 2262.19,-181.78 2265.51,-187.94"/>
</g>
</g>
</svg>
